<svg width="25" height="24" viewBox="0 0 25 24" fill="none" xmlns="http://www.w3.org/2000/svg">
<path d="M11.3628 14.4586L10.7872 18.4762C10.6029 19.7589 10.2958 19.9897 9.0107 19.829L5.69635 19.4164C4.44746 19.2605 4.20808 18.9715 4.30415 17.7171L4.88371 10.2049C4.92859 9.62373 4.95143 9.33316 5.00812 9.04889C5.1538 8.32917 5.55461 7.69685 5.71997 6.98736C5.81604 6.57474 5.78297 6.13692 5.78297 5.71485C5.78218 4.39746 6.05857 4.125 7.37597 4.125H16.9419C18.2592 4.125 18.5364 4.39746 18.5364 5.71485C18.5364 6.13771 18.5026 6.57474 18.5986 6.98736C18.764 7.69606 19.1656 8.32917 19.3097 9.04889C19.8735 11.8467 19.7948 14.876 20.0145 17.7171C20.1113 18.9715 19.8711 19.2605 18.6223 19.4164L15.3071 19.829C14.0228 19.9897 13.7157 19.7581 13.5314 18.4762L12.9566 14.4586" stroke="black" stroke-width="1.5" stroke-linecap="round" stroke-linejoin="round"/>
<path d="M9.79498 13.1816C10.3934 13.78 10.7383 14.3627 11.6282 14.3627H12.6865C13.5763 14.3627 13.9204 13.78 14.5197 13.1816M5.85776 6.48828H18.4569M5.07031 11.213C8.22009 11.2185 8.22009 8.06475 8.22009 6.48828M16.0945 6.48828C16.0945 8.06475 16.0945 11.2185 19.2443 11.213" stroke="black" stroke-width="1.5" stroke-linecap="round" stroke-linejoin="round"/>
</svg>
