<svg width="25" height="24" viewBox="0 0 25 24" fill="none" xmlns="http://www.w3.org/2000/svg">
<g clip-path="url(#clip0_268_300)">
<path d="M21.9086 12.1046L16.2152 10.2071C15.9191 10.1082 15.6468 9.94875 15.4157 9.73893C15.1846 9.52911 14.9996 9.2735 14.8727 8.98834L12.6967 3.90053V3.89115C12.5418 3.54361 12.2605 3.26795 11.91 3.11999C11.5594 2.97203 11.1657 2.96284 10.8086 3.09428L3.70984 5.67146C3.42084 5.77732 3.17125 5.96925 2.99473 6.22137C2.81821 6.47349 2.72325 6.77369 2.72266 7.08146V18.0005C2.72266 18.3984 2.88069 18.7799 3.162 19.0612C3.4433 19.3425 3.82483 19.5005 4.22266 19.5005H22.9727C23.3705 19.5005 23.752 19.3425 24.0333 19.0612C24.3146 18.7799 24.4727 18.3984 24.4727 18.0005V15.6624C24.4727 14.8753 24.2251 14.1082 23.7649 13.4696C23.3047 12.8311 22.6553 12.3535 21.9086 12.1046ZM11.3214 4.50053L11.988 6.05959L9.96672 6.79553C9.80091 6.85571 9.66162 6.9724 9.57333 7.1251C9.48503 7.2778 9.45338 7.45674 9.48394 7.63046C9.5145 7.80418 9.60531 7.96157 9.74041 8.07498C9.87552 8.18838 10.0463 8.25054 10.2227 8.25053C10.31 8.25043 10.3967 8.23488 10.4786 8.20459L12.5786 7.44146L13.023 8.47928L11.4667 9.04178C11.2982 9.10004 11.156 9.21643 11.0655 9.37009C10.975 9.52374 10.9423 9.70459 10.9731 9.88021C11.0039 10.0558 11.0963 10.2147 11.2336 10.3284C11.371 10.4421 11.5444 10.5031 11.7227 10.5005C11.81 10.5004 11.8967 10.4849 11.9786 10.4546L13.6286 9.85459C13.8178 10.203 14.0608 10.5194 14.3486 10.7921L12.9667 11.2946C12.8003 11.3543 12.6602 11.4709 12.5714 11.6239C12.4826 11.7768 12.4507 11.9562 12.4813 12.1304C12.5119 12.3046 12.6031 12.4623 12.7388 12.5758C12.8744 12.6893 13.0458 12.7512 13.2227 12.7505C13.3099 12.7503 13.3965 12.7351 13.4786 12.7055L16.1036 11.7512L21.4352 13.5277C21.7746 13.6412 22.082 13.834 22.332 14.0902C22.5819 14.3463 22.7672 14.6584 22.8723 15.0005H4.22266V7.08146L11.3214 4.50053ZM4.22266 18.0005V16.5005H22.9727V18.0005H4.22266Z" fill="black"/>
</g>
<defs>
<clipPath id="clip0_268_300">
<rect width="24" height="24" fill="white" transform="translate(0.472656)"/>
</clipPath>
</defs>
</svg>
