<svg width="25" height="24" viewBox="0 0 25 24" fill="none" xmlns="http://www.w3.org/2000/svg">
<path d="M12.1562 2.25C11.4618 2.25 10.6975 2.4525 10.0465 2.64825C9.40825 2.84175 8.9395 3.04125 8.9215 3.0465H8.899L6.742 3.774L6.6715 3.7965C6.57652 3.82312 6.4829 3.85441 6.391 3.89025L6.15625 3.9615V3.9855C5.52925 4.25475 4.5475 4.8375 3.97675 6.048C3.2005 7.6875 3.15625 9.726 3.15625 9.726V11.25H6.15625V21.75H18.1562V11.25H21.1562V9.6795C21.1562 9.6795 21.0917 9.04425 20.9688 8.27325C20.8458 7.503 20.7197 6.65325 20.2892 5.97675C19.7689 5.14595 19.0313 4.4732 18.1562 4.03125V3.96075L17.8517 3.867C17.8075 3.84675 17.8165 3.85875 17.7812 3.84375L17.6403 3.7965L15.4142 3.0465H15.3903C15.373 3.04125 14.9043 2.84175 14.2653 2.649C13.615 2.4525 12.8515 2.25 12.1562 2.25ZM12.1562 3.75C12.4817 3.75 13.2257 3.9225 13.8205 4.10175C13.9757 4.14825 13.9668 4.15125 14.1017 4.1955C14.0545 4.26525 14.0192 4.33275 13.9608 4.40625C13.6097 4.84275 13.117 5.25 12.1562 5.25C11.1955 5.25 10.7027 4.84275 10.3517 4.40625C10.2933 4.33275 10.258 4.26525 10.2108 4.1955C10.3458 4.15125 10.3368 4.14825 10.492 4.10175C11.0868 3.9225 11.8308 3.75 12.1562 3.75ZM8.734 4.66425C8.84575 4.878 8.989 5.10675 9.1795 5.34375C9.53713 5.78788 9.9908 6.14516 10.5064 6.38873C11.022 6.63229 11.5861 6.75581 12.1562 6.75C13.5857 6.75 14.5787 6.03225 15.133 5.34375C15.3235 5.10675 15.4668 4.878 15.5778 4.66425L16.6562 5.03925V20.25H7.65625V5.03925L8.734 4.66425ZM6.15625 5.6715V9.75H4.65625C4.65925 9.70875 4.77325 7.89225 5.33575 6.70275C5.52104 6.29743 5.80274 5.94363 6.15625 5.67225V5.6715ZM18.1562 5.78925C18.4315 6.02025 18.736 6.32175 19.0233 6.77325C19.1433 6.96375 19.378 7.8045 19.492 8.508C19.6007 9.1725 19.6502 9.6915 19.6562 9.75H18.1562V5.78925Z" fill="black"/>
</svg>
