<svg width="889" height="181" viewBox="0 0 889 181" fill="none" xmlns="http://www.w3.org/2000/svg">
<path d="M53.9144 130.344C60.9372 130.344 68.2021 128.36 75.7092 124.392C83.2163 120.424 89.8758 115.484 95.6878 109.572C101.58 103.579 106.545 97.0597 110.581 90.0141C114.698 82.8875 117.2 76.2063 118.088 69.9705C119.137 62.6819 117.725 56.851 113.85 52.4778C109.976 48.0237 103.437 45.7967 94.2348 45.7967C84.8711 45.7967 75.2249 48.0237 65.2961 52.4778C55.3674 56.932 46.488 62.6009 38.658 69.4846C30.9087 76.3682 24.2896 84.1832 18.8005 92.9295C13.3114 101.676 10.0018 110.179 8.87174 118.44C7.01514 131.802 9.1139 141.763 15.168 148.323C21.3029 154.883 30.263 158.608 42.0483 159.499C44.3085 159.661 45.9229 159.742 46.8916 159.742C55.5288 159.742 64.0046 157.96 72.3189 154.397C80.7139 150.833 88.3825 145.974 95.3245 139.819C102.267 133.746 108.523 127.024 114.092 119.654C119.743 112.204 124.707 104.227 128.985 95.7235C131.165 91.4313 134.999 82.604 140.488 69.2416C145.977 55.7982 150.982 45.4727 155.502 38.2651C151.466 37.3743 144.323 35.5116 134.071 32.6772C123.9 29.8427 114.98 27.6966 107.312 26.2389C99.7239 24.7812 92.2168 24.0524 84.7904 24.0524C51.3716 24.0524 25.7022 37.1313 7.782 63.2893L6.93442 62.8034C12.1006 55.3528 17.8722 48.955 24.2492 43.6101C30.6262 38.1841 37.2454 34.0134 44.1067 31.098C51.0488 28.1825 57.8294 26.077 64.4485 24.7812C71.1484 23.4855 78.0098 22.8376 85.0325 22.8376C92.7011 22.8376 100.289 23.526 107.796 24.9027C115.384 26.2794 124.384 28.466 134.797 31.4624C145.291 34.3779 152.435 36.281 156.229 37.1718C167.934 20.813 181.454 12.6336 196.792 12.6336C200.505 12.6336 203.29 13.5649 205.146 15.4275C207.003 17.2902 207.729 19.5982 207.326 22.3517C206.599 27.6966 202.684 32.0293 195.581 35.3497C188.558 38.67 180.567 40.3302 171.606 40.3302C167.732 40.3302 163.978 39.9658 160.346 39.2369C157.036 45.2298 153.484 54.3 149.691 66.4477C145.897 78.5953 142.748 87.3821 140.246 92.8081C135.726 102.445 130.277 111.353 123.9 119.533C117.523 127.631 110.339 134.798 102.347 141.034C94.4366 147.351 85.5572 152.251 75.7092 155.733C65.8612 159.296 55.6499 161.078 45.0754 161.078H43.017C37.0436 160.916 31.3527 159.904 25.9443 158.041C20.6167 156.178 15.8542 153.546 11.6566 150.145C7.45911 146.744 4.31097 142.289 2.21221 136.783C0.113447 131.276 -0.491965 125.161 0.395972 118.44C1.6068 110.017 5.19891 101.392 11.1723 92.5651C17.1457 83.6568 24.4106 75.7204 32.9671 68.7557C41.5236 61.7101 51.2909 55.9197 62.2691 51.3846C73.2472 46.8494 83.9832 44.5819 94.477 44.5819C105.859 44.5819 113.931 47.0114 118.693 51.8705C123.537 56.6485 125.393 62.9653 124.263 70.8208C123.375 77.2186 120.711 84.0213 116.272 91.2289C111.913 98.3555 106.545 104.915 100.168 110.908C93.7908 116.82 86.4452 121.76 78.1308 125.728C69.8165 129.615 61.704 131.559 53.7933 131.559C47.1741 131.559 42.6941 129.939 40.3532 126.7C38.0122 123.461 37.1647 119.533 37.8104 114.917C38.5369 109.815 41.2814 104.591 46.044 99.2463C50.8873 93.8204 55.9324 90.2571 61.1793 88.5564L61.5426 89.0423C56.5378 90.662 51.6945 94.1443 47.0127 99.4893C42.4116 104.753 39.7477 109.896 39.0212 114.917C38.4562 119.128 39.2634 122.772 41.4429 125.85C43.6224 128.846 47.7795 130.344 53.9144 130.344ZM206.115 22.3517C206.518 19.9221 205.832 17.8975 204.056 16.2779C202.361 14.6582 199.859 13.8483 196.549 13.8483C181.858 13.8483 169.992 21.9063 160.951 38.0222C164.099 38.67 167.772 38.994 171.97 38.994C180.607 38.994 188.275 37.4957 194.975 34.4993C201.675 31.4219 205.388 27.3727 206.115 22.3517Z" fill="white"/>
<path d="M161.943 135.203C152.66 135.203 148.584 131.073 149.714 122.813C150.279 119.006 151.813 114.795 154.315 110.179C156.737 105.563 159.441 101.514 162.428 98.0315C176.312 81.5917 190.317 73.3718 204.443 73.3718C207.269 73.3718 209.367 74.0602 210.74 75.4369C212.112 76.8137 212.637 78.7168 212.314 81.1463C212.152 82.3611 211.789 83.6973 211.224 85.155L209.408 88.7993C215.946 80.5389 220.063 75.5584 221.758 73.8577H233.14C232.898 74.1817 231.364 75.9228 228.539 79.0812C225.714 82.1586 222.485 85.8029 218.852 90.0141C215.22 94.1443 211.829 98.1125 208.681 101.919C204.161 107.426 200.125 112.73 196.573 117.832C193.344 122.61 191.528 126.214 191.124 128.644C190.64 132.207 191.972 133.989 195.12 133.989C197.945 133.989 201.053 133.098 204.443 131.316C207.834 129.534 211.587 126.862 215.704 123.299C219.821 119.654 223.09 116.617 225.512 114.188C227.933 111.758 231.162 108.398 235.198 104.105L240.889 98.153L241.737 98.8819L238.71 102.04C238.548 102.202 238.306 102.445 237.983 102.769C237.66 103.012 237.378 103.296 237.136 103.619C236.893 103.862 236.651 104.105 236.409 104.348C232.05 108.964 228.7 112.447 226.359 114.795C224.018 117.063 220.709 120.14 216.431 124.028C212.152 127.834 208.237 130.668 204.686 132.531C201.134 134.313 197.905 135.203 194.999 135.203C192.093 135.203 190.075 134.151 188.945 132.045C187.815 129.939 187.451 127.388 187.855 124.392C188.178 121.881 189.106 119.168 190.64 116.253C191.205 114.957 192.093 113.338 193.304 111.394C187.492 118.116 181.64 123.785 175.747 128.401C169.935 132.936 165.334 135.203 161.943 135.203ZM170.904 101.676C161.54 112.852 156.454 121.436 155.647 127.429C155.001 131.802 157.141 133.989 162.065 133.989C166.02 133.989 171.872 130.506 179.622 123.542C187.451 116.496 194.555 108.64 200.932 99.9752C205.21 94.1443 208.237 89.0828 210.013 84.7906C210.497 83.6568 210.82 82.4826 210.982 81.2678C211.628 76.8137 209.408 74.5866 204.322 74.5866C200.528 74.5866 195.604 77.1376 189.55 82.2396C183.577 87.3416 177.361 93.8204 170.904 101.676Z" fill="white"/>
<path d="M302.089 135.203C299.021 135.203 296.6 134.353 294.824 132.652C293.048 130.952 292.321 128.725 292.644 125.971C293.048 123.461 294.057 120.707 295.671 117.711C297.286 114.714 298.82 112.285 300.272 110.422C301.725 108.479 303.703 106.049 306.206 103.134C307.416 101.676 309.354 99.4488 312.017 96.4524C314.681 93.3749 316.578 91.1479 317.708 89.7711C318.919 88.3134 320.13 86.6128 321.341 84.6691C322.552 82.6445 323.238 80.9034 323.399 79.4456C323.964 76.2063 322.794 74.5866 319.888 74.5866C315.287 74.5866 310.161 76.8946 304.51 81.5107C298.86 86.0459 292.483 92.1197 285.379 99.7322C280.375 107.588 271.495 119.209 258.741 134.596H247.36C247.521 134.353 249.014 132.652 251.84 129.494C254.746 126.336 257.974 122.691 261.526 118.561C265.078 114.431 268.428 110.463 271.576 106.656C276.823 100.259 280.859 94.9541 283.684 90.743C286.913 85.9649 288.729 82.3611 289.133 79.9316C289.617 76.3682 288.285 74.5866 285.137 74.5866C283.361 74.5866 281.464 74.951 279.446 75.6799C277.509 76.3277 275.41 77.4615 273.15 79.0812C270.971 80.6199 268.993 82.1181 267.217 83.5758C265.441 84.9526 263.262 86.8962 260.679 89.4067C258.176 91.8363 256.239 93.7799 254.867 95.2376C253.494 96.6143 251.517 98.7199 248.934 101.554C246.431 104.308 244.776 106.089 243.969 106.899L221.811 134.596H211.64L260.315 73.8577H270.486L253.293 95.2376C259.67 88.5969 265.481 83.2924 270.728 79.3242C276.056 75.3559 280.899 73.3718 285.258 73.3718C288.164 73.3718 290.182 74.4246 291.312 76.5302C292.443 78.6358 292.806 81.1868 292.402 84.1832C292.079 86.6937 291.151 89.4067 289.617 92.3222C288.971 93.6179 288.447 94.5897 288.043 95.2376C294.501 88.5159 300.353 83.2114 305.6 79.3242C310.847 75.3559 315.65 73.3718 320.009 73.3718C322.915 73.3718 325.014 74.4246 326.305 76.5302C327.597 78.6358 328.041 81.1868 327.637 84.1832C327.476 85.236 327.234 86.2888 326.911 87.3416C326.588 88.3944 326.144 89.4877 325.579 90.6215C325.014 91.7553 324.489 92.7271 324.005 93.5369C323.601 94.3468 322.915 95.3996 321.946 96.6953C321.058 97.9101 320.413 98.8009 320.009 99.3678C319.605 99.9347 318.798 100.947 317.587 102.405C316.457 103.781 315.771 104.632 315.529 104.956C309.475 112.325 305.197 117.751 302.694 121.234C300.273 124.635 298.9 127.469 298.577 129.737C298.174 132.571 299.385 133.989 302.21 133.989C305.035 133.989 308.143 133.098 311.533 131.316C314.923 129.534 318.677 126.862 322.794 123.299C326.911 119.654 330.18 116.617 332.601 114.188C335.023 111.758 338.252 108.398 342.288 104.105L347.979 98.153L348.827 98.8819L345.799 102.04C345.638 102.202 345.396 102.445 345.073 102.769C344.75 103.012 344.468 103.296 344.225 103.619C343.983 103.862 343.741 104.105 343.499 104.348C339.14 108.964 335.79 112.447 333.449 114.795C331.108 117.063 327.799 120.14 323.52 124.028C319.242 127.834 315.327 130.668 311.775 132.531C308.224 134.313 304.995 135.203 302.089 135.203Z" fill="white"/>
<path d="M477.851 123.177C472.927 123.177 468.164 122.529 463.563 121.234C459.043 119.938 454.926 118.075 451.213 115.646C447.58 113.216 444.795 109.936 442.858 105.806C441.001 101.595 440.436 96.8978 441.163 91.7148C442.131 84.9121 444.916 77.826 449.517 70.4564C454.119 63.0058 459.85 55.9602 466.711 49.3195C473.653 42.5978 481.604 36.2 490.564 30.1262C499.605 24.0524 508.807 18.8289 518.171 14.4557C527.616 10.0016 537.262 6.47875 547.11 3.88724C557.039 1.29575 566.281 0 574.838 0C580.327 0 584.968 0.526399 588.762 1.5792C592.637 2.55101 595.704 4.41364 597.964 7.16712C600.225 9.8396 601.072 13.2814 600.507 17.4926C599.458 25.1051 594.372 33.5275 585.251 42.7597C576.129 51.911 565.716 59.6045 554.011 65.8403C542.307 71.9951 532.338 75.0725 524.104 75.0725C519.019 75.0725 515.144 73.9387 512.48 71.6711C509.816 69.3226 508.767 66.0427 509.332 61.8315H509.816C509.251 65.6378 510.26 68.5937 512.843 70.6993C515.507 72.8049 519.342 73.8577 524.346 73.8577C531.934 73.8577 541.056 70.8208 551.711 64.747C562.447 58.6732 571.972 51.1416 580.286 42.1524C588.681 33.1631 593.404 24.9432 594.453 17.4926C595.26 11.7427 593.807 7.61252 590.094 5.10201C586.462 2.51051 581.336 1.21476 574.717 1.21476C562.851 1.21476 549.774 4.00872 535.486 9.59664C521.279 15.1846 508.121 22.2707 496.013 30.855C483.986 39.3584 473.572 49.117 464.774 60.1309C456.056 71.1447 451.011 81.6727 449.638 91.7148C448.912 96.7358 449.235 101.271 450.607 105.32C452.06 109.288 454.199 112.447 457.025 114.795C459.931 117.144 463.159 118.926 466.711 120.14C470.263 121.355 474.016 121.962 477.972 121.962C490.161 121.962 504.206 117.954 520.108 109.936C536.091 101.838 551.549 92.0792 566.483 80.6604L577.865 71.9141L558.976 97.9101C542.832 120.262 529.432 136.621 518.777 146.987C524.346 150.712 529.27 154.721 533.549 159.013L532.701 159.985C527.696 155.045 522.692 151.076 517.687 148.08C506.628 158.689 494.964 166.828 482.694 172.497C470.505 178.166 456.823 181 441.647 181C438.176 181 434.907 180.798 431.839 180.393C428.853 179.988 425.906 179.299 423 178.328C420.175 177.356 417.996 175.858 416.462 173.833C414.928 171.889 414.363 169.5 414.767 166.666C415.655 160.268 419.368 154.559 425.906 149.538C432.526 144.598 440.154 140.953 448.791 138.605C457.428 136.256 466.106 135.082 474.824 135.082C489.434 135.082 501.986 137.876 512.48 143.464C523.136 132.369 535.446 116.941 549.41 97.1812L553.527 91.3503C521.884 112.568 496.659 123.177 477.851 123.177ZM421.911 166.666C421.265 171.525 422.637 174.886 426.027 176.748C429.418 178.692 434.342 179.664 440.8 179.664C454.28 179.664 466.711 176.627 478.093 170.553C489.475 164.56 500.574 155.935 511.391 144.679C500.897 139.9 488.587 137.511 474.46 137.511C466.953 137.511 459.365 138.645 451.697 140.913C444.109 143.261 437.45 146.744 431.718 151.36C425.987 155.976 422.718 161.078 421.911 166.666ZM598.812 110.665C608.418 99.6512 613.584 91.6338 614.31 86.6128C614.633 84.0213 614.189 82.0371 612.979 80.6604C611.849 79.2027 610.234 77.9474 608.135 76.8946C606.117 75.7609 604.745 74.6271 604.019 73.4933C603.857 72.7644 603.857 72.0356 604.019 71.3067C604.18 70.1729 604.705 68.5127 605.593 66.3262C606.481 64.1396 606.965 62.7224 607.046 62.0745C607.288 61.0217 606.884 60.4953 605.835 60.4953C604.301 60.4953 602.969 61.0217 601.839 62.0745C600.79 63.0463 600.144 64.3016 599.902 65.8403C599.498 68.4318 600.386 70.9828 602.566 73.4933C600.951 75.5989 596.713 80.3365 589.852 87.706C582.991 94.9946 575.645 102.81 567.815 111.151C559.985 119.411 555.626 124.028 554.738 124.999L556.554 126.579C560.429 122.448 568.501 113.581 580.771 99.9752C593.04 86.2888 600.507 77.7855 603.171 74.4651C603.655 75.032 604.503 75.7608 605.714 76.6517C607.005 77.5425 608.014 78.4333 608.741 79.3242C609.467 80.134 609.75 81.1058 609.588 82.2396C609.023 86.2888 603.131 94.1848 591.91 105.928C583.757 114.431 579.318 121.112 578.591 125.971C578.268 128.725 578.995 130.952 580.771 132.652C582.547 134.353 584.968 135.203 588.036 135.203C590.942 135.203 594.17 134.313 597.722 132.531C601.274 130.668 605.189 127.834 609.467 124.028C613.745 120.14 617.055 117.063 619.396 114.795C621.737 112.447 625.087 108.964 629.446 104.348L631.746 102.04L634.773 98.8819L633.926 98.153L628.235 104.105C624.199 108.398 620.97 111.758 618.548 114.188C616.127 116.617 612.858 119.654 608.741 123.299C604.624 126.862 600.87 129.534 597.48 131.316C594.09 133.098 590.982 133.989 588.157 133.989C585.332 133.989 584.121 132.571 584.524 129.737C584.605 128.927 584.928 127.996 585.493 126.943C586.139 125.809 587.027 124.554 588.157 123.177C589.287 121.719 590.296 120.464 591.184 119.411C592.152 118.278 593.444 116.779 595.058 114.917C596.754 112.973 598.005 111.556 598.812 110.665Z" fill="white"/>
<path d="M633.495 135.203C624.212 135.203 620.136 131.073 621.266 122.813C621.831 119.006 623.365 114.795 625.867 110.179C628.289 105.563 630.993 101.514 633.98 98.0315C647.864 81.5917 661.869 73.3718 675.995 73.3718C678.821 73.3718 680.919 74.0602 682.292 75.4369C683.664 76.8137 684.189 78.7168 683.866 81.1463C683.704 82.3611 683.341 83.6973 682.776 85.155L680.96 88.7993C687.498 80.5389 691.615 75.5584 693.31 73.8577H704.692C704.45 74.1817 702.916 75.9228 700.091 79.0812C697.265 82.1586 694.037 85.8029 690.404 90.0141C686.772 94.1443 683.381 98.1125 680.233 101.919C675.713 107.426 671.677 112.73 668.125 117.832C664.896 122.61 663.08 126.214 662.676 128.644C662.192 132.207 663.524 133.989 666.672 133.989C669.497 133.989 672.605 133.098 675.995 131.316C679.386 129.534 683.139 126.862 687.256 123.299C691.373 119.654 694.642 116.617 697.064 114.188C699.485 111.758 702.714 108.398 706.75 104.105L712.441 98.153L713.289 98.8819L710.262 102.04C710.1 102.202 709.858 102.445 709.535 102.769C709.212 103.012 708.93 103.296 708.688 103.619C708.445 103.862 708.203 104.105 707.961 104.348C703.602 108.964 700.252 112.447 697.911 114.795C695.57 117.063 692.261 120.14 687.982 124.028C683.704 127.834 679.789 130.668 676.238 132.531C672.686 134.313 669.457 135.203 666.551 135.203C663.645 135.203 661.627 134.151 660.497 132.045C659.367 129.939 659.003 127.388 659.407 124.392C659.73 121.881 660.658 119.168 662.192 116.253C662.757 114.957 663.645 113.338 664.856 111.394C659.044 118.116 653.192 123.785 647.299 128.401C641.487 132.936 636.886 135.203 633.495 135.203ZM642.456 101.676C633.092 112.852 628.006 121.436 627.199 127.429C626.553 131.802 628.692 133.989 633.616 133.989C637.572 133.989 643.424 130.506 651.173 123.542C659.003 116.496 666.107 108.64 672.484 99.9752C676.762 94.1443 679.789 89.0828 681.565 84.7906C682.049 83.6568 682.372 82.4826 682.534 81.2678C683.18 76.8137 680.96 74.5866 675.874 74.5866C672.08 74.5866 667.156 77.1376 661.102 82.2396C655.129 87.3416 648.913 93.8204 642.456 101.676Z" fill="white"/>
<path d="M754.51 73.3718C757.416 73.3718 759.555 74.0197 760.927 75.3154C762.38 76.5302 762.945 78.3928 762.622 80.9034C762.219 83.6568 761.088 85.9649 759.232 87.8275C757.052 90.338 755.115 91.5933 753.42 91.5933C752.29 91.5933 751.806 91.0669 751.967 90.0141C752.128 88.7183 753.501 87.3011 756.084 85.7624C759.232 83.8188 760.887 82.0371 761.048 80.4175C761.29 78.5548 760.887 77.1376 759.837 76.1658C758.869 75.113 757.173 74.5866 754.752 74.5866C751.039 74.5866 746.074 77.1781 739.859 82.3611C733.643 87.5441 727.347 93.9823 720.97 101.676C718.467 104.672 716.086 108.276 713.826 112.487C711.566 116.617 710.194 120.383 709.709 123.785C708.741 130.587 711.969 133.989 719.396 133.989C725.611 133.989 733.401 130.506 742.765 123.542C752.209 116.577 760.685 109.167 768.192 101.311L771.219 98.153L772.067 98.8819L769.04 102.04C761.452 110.058 752.855 117.589 743.249 124.635C733.724 131.681 725.732 135.203 719.275 135.203C712.817 135.203 708.337 133.665 705.835 130.587C703.332 127.429 702.404 123.38 703.05 118.44C704.018 111.232 707.167 104.429 712.494 98.0315C718.79 90.5 725.531 84.5072 732.715 80.053C739.98 75.5989 747.245 73.3718 754.51 73.3718Z" fill="white"/>
<path d="M773.441 132.531C769.97 134.313 766.782 135.203 763.876 135.203C760.97 135.203 758.952 134.151 757.821 132.045C756.691 129.939 756.328 127.388 756.732 124.392C757.055 121.881 757.983 119.168 759.517 116.253C761.777 111.718 765.409 106.009 770.414 99.1248C775.499 92.2412 779.697 86.7747 783.007 82.7255C786.397 78.5953 788.899 75.6394 790.514 73.8577H801.895C801.653 74.1817 800.12 75.9228 797.294 79.0812C794.469 82.1586 791.24 85.8029 787.608 90.0141C783.975 94.1443 780.585 98.1125 777.437 101.919C772.674 107.75 768.679 113.054 765.45 117.832C762.221 122.61 760.405 126.214 760.001 128.644C759.517 132.207 760.849 133.989 763.997 133.989C766.741 133.989 769.809 133.098 773.199 131.316C776.589 129.534 780.343 126.862 784.46 123.299C788.576 119.654 791.846 116.617 794.267 114.188C796.689 111.758 799.918 108.398 803.954 104.105L809.645 98.153L810.492 98.8819L807.465 102.04C807.304 102.202 807.062 102.445 806.739 102.769C806.416 103.012 806.133 103.296 805.891 103.619C805.649 103.862 805.407 104.105 805.165 104.348C800.806 108.964 797.456 112.447 795.115 114.795C792.774 117.063 789.464 120.14 785.186 124.028C780.908 127.834 776.993 130.668 773.441 132.531ZM799.958 60.2523C800.12 58.7136 800.765 57.4584 801.895 56.4866C803.026 55.4338 804.317 54.9074 805.77 54.9074C807.304 54.9074 808.474 55.4338 809.281 56.4866C810.169 57.4584 810.533 58.7136 810.371 60.2523C810.129 61.6291 809.443 62.8034 808.313 63.7752C807.183 64.747 805.851 65.2329 804.317 65.2329C802.864 65.2329 801.694 64.747 800.806 63.7752C799.998 62.8034 799.716 61.6291 799.958 60.2523Z" fill="white"/>
<path d="M809.207 135.203C799.924 135.203 795.847 131.073 796.977 122.813C797.543 119.006 799.076 114.795 801.578 110.179C804 105.563 806.704 101.514 809.691 98.0315C823.575 81.5917 837.58 73.3718 851.707 73.3718C854.532 73.3718 856.631 74.0602 858.003 75.4369C859.375 76.8137 859.9 78.7168 859.577 81.1463C859.416 82.3611 859.052 83.6973 858.487 85.155L856.671 88.7993C863.21 80.5389 867.326 75.5584 869.021 73.8577H880.403C880.161 74.1817 878.627 75.9228 875.802 79.0812C872.977 82.1586 869.748 85.8029 866.115 90.0141C862.483 94.1443 859.093 98.1125 855.945 101.919C851.424 107.426 847.388 112.73 843.836 117.832C840.607 122.61 838.791 126.214 838.388 128.644C837.903 132.207 839.235 133.989 842.383 133.989C845.209 133.989 848.316 133.098 851.707 131.316C855.097 129.534 858.851 126.862 862.967 123.299C867.084 119.654 870.353 116.617 872.775 114.188C875.197 111.758 878.425 108.398 882.462 104.105L888.152 98.153L889 98.8819L885.973 102.04C885.812 102.202 885.569 102.445 885.246 102.769C884.924 103.012 884.641 103.296 884.399 103.619C884.157 103.862 883.915 104.105 883.672 104.348C879.313 108.964 875.964 112.447 873.623 114.795C871.282 117.063 867.972 120.14 863.694 124.028C859.416 127.834 855.501 130.668 851.949 132.531C848.397 134.313 845.168 135.203 842.262 135.203C839.356 135.203 837.338 134.151 836.208 132.045C835.078 129.939 834.715 127.388 835.118 124.392C835.441 121.881 836.37 119.168 837.903 116.253C838.468 114.957 839.356 113.338 840.567 111.394C834.755 118.116 828.903 123.785 823.01 128.401C817.198 132.936 812.597 135.203 809.207 135.203ZM818.167 101.676C808.803 112.852 803.718 121.436 802.91 127.429C802.265 131.802 804.404 133.989 809.328 133.989C813.283 133.989 819.136 130.506 826.885 123.542C834.715 116.496 841.818 108.64 848.195 99.9752C852.474 94.1443 855.501 89.0828 857.276 84.7906C857.761 83.6568 858.084 82.4826 858.245 81.2678C858.891 76.8137 856.671 74.5866 851.586 74.5866C847.792 74.5866 842.868 77.1376 836.813 82.2396C830.84 87.3416 824.625 93.8204 818.167 101.676Z" fill="white"/>
<path d="M379.485 114.629C374.646 115.127 370.519 114.271 367.105 112.063C363.348 109.623 361.23 106.055 360.75 101.359C360.594 99.8282 360.64 98.4637 360.89 97.265C361.756 92.2171 364.061 87.9811 367.804 84.557C371.358 81.3657 375.761 79.2068 381.014 78.0804C379.206 76.5066 378.194 74.6644 377.978 72.5537C377.617 69.0183 378.957 66.0012 381.997 63.5026C384.643 61.311 387.807 60.026 391.489 59.6476C397.59 59.0205 400.856 60.8176 401.287 65.039C401.454 66.6748 400.971 68.1908 399.838 69.587C398.705 70.9832 397.324 71.765 395.693 71.9326C394.799 72.0245 393.991 71.9209 393.27 71.6218C392.327 71.2388 391.815 70.6516 391.734 69.8601C391.718 69.7018 391.747 69.4589 391.82 69.1315C391.787 68.8149 391.876 68.6458 392.087 68.6241C392.244 68.6079 392.334 68.7053 392.356 68.9164C392.372 69.0747 392.362 69.2357 392.325 69.3994C392.242 69.6213 392.205 69.785 392.216 69.8906C392.318 70.8931 392.896 71.3404 393.947 71.2323C395.525 71.0701 396.897 70.4492 398.062 69.3696C399.322 68.1737 399.871 66.7843 399.709 65.2012C399.532 63.4599 398.681 62.1609 397.159 61.3043C395.858 60.5316 394.286 60.2398 392.446 60.429C388.922 60.7913 386.034 62.1811 383.783 64.5987C381.438 67.1326 380.443 70.1409 380.798 73.6236C380.976 75.3649 381.545 76.7727 382.505 77.8471C382.821 77.8147 383.136 77.7823 383.452 77.7498C383.762 77.6646 384.075 77.6058 384.39 77.5734C390.229 76.9733 393.231 77.4912 393.398 79.127C393.506 80.1823 392.613 80.8073 390.72 81.0019C387.774 81.3046 385.029 80.707 382.485 79.2089C372.522 82.0992 366.852 87.9875 365.474 96.8738C365.235 98.1781 365.197 99.6217 365.358 101.205C365.768 105.215 367.393 108.381 370.234 110.701C373.06 112.864 376.523 113.734 380.626 113.312C385.57 112.804 389.958 110.754 393.79 107.161C397.905 103.218 399.717 98.8463 399.227 94.0444C398.752 89.4009 395.807 87.3575 390.389 87.9144C388.759 88.0819 387.147 88.4342 385.554 88.9712C384.014 89.5027 382.469 90.2481 380.92 91.2072C380.016 91.7266 379.202 92.3435 378.478 93.0578C377.748 93.7193 377.079 94.4546 376.471 95.2636C375.134 97.2673 374.557 99.1662 374.741 100.96C374.902 102.543 375.563 103.808 376.723 104.756C377.882 105.703 379.251 106.095 380.829 105.933C382.565 105.755 384.05 105.202 385.284 104.276C386.77 103.216 387.432 101.895 387.271 100.312C387.222 99.8373 387.356 99.5836 387.671 99.5512C388.092 99.508 388.343 99.8821 388.424 100.674C388.601 102.415 387.826 103.934 386.099 105.232C384.718 106.28 383.054 106.904 381.108 107.104C378.741 107.348 376.73 106.648 375.074 105.005C373.476 103.41 372.558 101.451 372.321 99.1294C371.847 94.4858 373.661 90.9134 377.764 88.4122C380.018 87.0608 383.485 86.1445 388.166 85.6634C390.901 85.3823 394.976 85.2035 400.389 85.127C405.802 85.0504 409.85 84.8743 412.533 84.5986C420.895 83.739 424.888 81.4624 424.511 77.7687C424.301 75.7107 423.046 74.6133 420.747 74.4764C420.263 74.4195 420.002 74.2064 419.964 73.837C419.915 73.3621 420.128 73.1003 420.601 73.0517C421.811 72.9273 422.996 73.3388 424.155 74.286C425.157 75.2494 425.723 76.3644 425.852 77.6308C425.863 77.7363 425.876 77.8683 425.893 78.0266C425.909 78.1849 425.896 78.3195 425.854 78.4304C425.433 82.6328 421.067 85.1611 412.757 86.0152C410.969 86.199 408.436 86.3794 405.159 86.5563C403.36 86.6345 401.826 86.7122 400.559 86.7891C399.291 86.8661 398.263 86.9451 397.474 87.0262C400.285 88.0169 401.877 90.3328 402.249 93.9738C402.804 99.4088 400.425 104.212 395.111 108.384C390.426 111.959 385.218 114.04 379.485 114.629ZM389.456 80.332C391.086 80.1644 391.866 79.7377 391.796 79.0517C391.705 78.1546 390.475 77.8277 388.109 78.071C387.372 78.1467 386.612 78.2515 385.829 78.3853C385.098 78.5138 384.369 78.6686 383.644 78.8498C385.414 80.0542 387.352 80.5483 389.456 80.332Z" fill="white"/>
<path d="M53.9144 130.344C60.9372 130.344 68.2021 128.36 75.7092 124.392C83.2163 120.424 89.8758 115.484 95.6878 109.572C101.58 103.579 106.545 97.0597 110.581 90.0141C114.698 82.8875 117.2 76.2063 118.088 69.9705C119.137 62.6819 117.725 56.851 113.85 52.4778C109.976 48.0237 103.437 45.7967 94.2348 45.7967C84.8711 45.7967 75.2249 48.0237 65.2961 52.4778C55.3674 56.932 46.488 62.6009 38.658 69.4846C30.9087 76.3682 24.2896 84.1832 18.8005 92.9295C13.3114 101.676 10.0018 110.179 8.87174 118.44C7.01514 131.802 9.1139 141.763 15.168 148.323C21.3029 154.883 30.263 158.608 42.0483 159.499C44.3085 159.661 45.9229 159.742 46.8916 159.742C55.5288 159.742 64.0046 157.96 72.3189 154.397C80.7139 150.833 88.3825 145.974 95.3245 139.819C102.267 133.746 108.523 127.024 114.092 119.654C119.743 112.204 124.707 104.227 128.985 95.7235C131.165 91.4313 134.999 82.604 140.488 69.2416C145.977 55.7982 150.982 45.4727 155.502 38.2651C151.466 37.3743 144.323 35.5116 134.071 32.6772C123.9 29.8427 114.98 27.6966 107.312 26.2389C99.7239 24.7812 92.2168 24.0524 84.7904 24.0524C51.3716 24.0524 25.7022 37.1313 7.782 63.2893L6.93442 62.8034C12.1006 55.3528 17.8722 48.955 24.2492 43.6101C30.6262 38.1841 37.2454 34.0134 44.1067 31.098C51.0488 28.1825 57.8294 26.077 64.4485 24.7812C71.1484 23.4855 78.0098 22.8376 85.0325 22.8376C92.7011 22.8376 100.289 23.526 107.796 24.9027C115.384 26.2794 124.384 28.466 134.797 31.4624C145.291 34.3779 152.435 36.281 156.229 37.1718C167.934 20.813 181.454 12.6336 196.792 12.6336C200.505 12.6336 203.29 13.5649 205.146 15.4275C207.003 17.2902 207.729 19.5982 207.326 22.3517C206.599 27.6966 202.684 32.0293 195.581 35.3497C188.558 38.67 180.567 40.3302 171.606 40.3302C167.732 40.3302 163.978 39.9658 160.346 39.2369C157.036 45.2298 153.484 54.3 149.691 66.4477C145.897 78.5953 142.748 87.3821 140.246 92.8081C135.726 102.445 130.277 111.353 123.9 119.533C117.523 127.631 110.339 134.798 102.347 141.034C94.4366 147.351 85.5572 152.251 75.7092 155.733C65.8612 159.296 55.6499 161.078 45.0754 161.078H43.017C37.0436 160.916 31.3527 159.904 25.9443 158.041C20.6167 156.178 15.8542 153.546 11.6566 150.145C7.45911 146.744 4.31097 142.289 2.21221 136.783C0.113447 131.276 -0.491965 125.161 0.395972 118.44C1.6068 110.017 5.19891 101.392 11.1723 92.5651C17.1457 83.6568 24.4106 75.7204 32.9671 68.7557C41.5236 61.7101 51.2909 55.9197 62.2691 51.3846C73.2472 46.8494 83.9832 44.5819 94.477 44.5819C105.859 44.5819 113.931 47.0114 118.693 51.8705C123.537 56.6485 125.393 62.9653 124.263 70.8208C123.375 77.2186 120.711 84.0213 116.272 91.2289C111.913 98.3555 106.545 104.915 100.168 110.908C93.7908 116.82 86.4452 121.76 78.1308 125.728C69.8165 129.615 61.704 131.559 53.7933 131.559C47.1741 131.559 42.6941 129.939 40.3532 126.7C38.0122 123.461 37.1647 119.533 37.8104 114.917C38.5369 109.815 41.2814 104.591 46.044 99.2463C50.8873 93.8204 55.9324 90.2571 61.1793 88.5564L61.5426 89.0423C56.5378 90.662 51.6945 94.1443 47.0127 99.4893C42.4116 104.753 39.7477 109.896 39.0212 114.917C38.4562 119.128 39.2634 122.772 41.4429 125.85C43.6224 128.846 47.7795 130.344 53.9144 130.344ZM206.115 22.3517C206.518 19.9221 205.832 17.8975 204.056 16.2779C202.361 14.6582 199.859 13.8483 196.549 13.8483C181.858 13.8483 169.992 21.9063 160.951 38.0222C164.099 38.67 167.772 38.994 171.97 38.994C180.607 38.994 188.275 37.4957 194.975 34.4993C201.675 31.4219 205.388 27.3727 206.115 22.3517Z" stroke="white"/>
<path d="M161.943 135.203C152.66 135.203 148.584 131.073 149.714 122.813C150.279 119.006 151.813 114.795 154.315 110.179C156.737 105.563 159.441 101.514 162.428 98.0315C176.312 81.5917 190.317 73.3718 204.443 73.3718C207.269 73.3718 209.367 74.0602 210.74 75.4369C212.112 76.8137 212.637 78.7168 212.314 81.1463C212.152 82.3611 211.789 83.6973 211.224 85.155L209.408 88.7993C215.946 80.5389 220.063 75.5584 221.758 73.8577H233.14C232.898 74.1817 231.364 75.9228 228.539 79.0812C225.714 82.1586 222.485 85.8029 218.852 90.0141C215.22 94.1443 211.829 98.1125 208.681 101.919C204.161 107.426 200.125 112.73 196.573 117.832C193.344 122.61 191.528 126.214 191.124 128.644C190.64 132.207 191.972 133.989 195.12 133.989C197.945 133.989 201.053 133.098 204.443 131.316C207.834 129.534 211.587 126.862 215.704 123.299C219.821 119.654 223.09 116.617 225.512 114.188C227.933 111.758 231.162 108.398 235.198 104.105L240.889 98.153L241.737 98.8819L238.71 102.04C238.548 102.202 238.306 102.445 237.983 102.769C237.66 103.012 237.378 103.296 237.136 103.619C236.893 103.862 236.651 104.105 236.409 104.348C232.05 108.964 228.7 112.447 226.359 114.795C224.018 117.063 220.709 120.14 216.431 124.028C212.152 127.834 208.237 130.668 204.686 132.531C201.134 134.313 197.905 135.203 194.999 135.203C192.093 135.203 190.075 134.151 188.945 132.045C187.815 129.939 187.451 127.388 187.855 124.392C188.178 121.881 189.106 119.168 190.64 116.253C191.205 114.957 192.093 113.338 193.304 111.394C187.492 118.116 181.64 123.785 175.747 128.401C169.935 132.936 165.334 135.203 161.943 135.203ZM170.904 101.676C161.54 112.852 156.454 121.436 155.647 127.429C155.001 131.802 157.141 133.989 162.065 133.989C166.02 133.989 171.872 130.506 179.622 123.542C187.451 116.496 194.555 108.64 200.932 99.9752C205.21 94.1443 208.237 89.0828 210.013 84.7906C210.497 83.6568 210.82 82.4826 210.982 81.2678C211.628 76.8137 209.408 74.5866 204.322 74.5866C200.528 74.5866 195.604 77.1376 189.55 82.2396C183.577 87.3416 177.361 93.8204 170.904 101.676Z" stroke="white"/>
<path d="M302.089 135.203C299.021 135.203 296.6 134.353 294.824 132.652C293.048 130.952 292.321 128.725 292.644 125.971C293.048 123.461 294.057 120.707 295.671 117.711C297.286 114.714 298.82 112.285 300.272 110.422C301.725 108.479 303.703 106.049 306.206 103.134C307.416 101.676 309.354 99.4488 312.017 96.4524C314.681 93.3749 316.578 91.1479 317.708 89.7711C318.919 88.3134 320.13 86.6128 321.341 84.6691C322.552 82.6445 323.238 80.9034 323.399 79.4456C323.964 76.2063 322.794 74.5866 319.888 74.5866C315.287 74.5866 310.161 76.8946 304.51 81.5107C298.86 86.0459 292.483 92.1197 285.379 99.7322C280.375 107.588 271.495 119.209 258.741 134.596H247.36C247.521 134.353 249.014 132.652 251.84 129.494C254.746 126.336 257.974 122.691 261.526 118.561C265.078 114.431 268.428 110.463 271.576 106.656C276.823 100.259 280.859 94.9541 283.684 90.743C286.913 85.9649 288.729 82.3611 289.133 79.9316C289.617 76.3682 288.285 74.5866 285.137 74.5866C283.361 74.5866 281.464 74.951 279.446 75.6799C277.509 76.3277 275.41 77.4615 273.15 79.0812C270.971 80.6199 268.993 82.1181 267.217 83.5758C265.441 84.9526 263.262 86.8962 260.679 89.4067C258.176 91.8363 256.239 93.7799 254.867 95.2376C253.494 96.6143 251.517 98.7199 248.934 101.554C246.431 104.308 244.776 106.089 243.969 106.899L221.811 134.596H211.64L260.315 73.8577H270.486L253.293 95.2376C259.67 88.5969 265.481 83.2924 270.728 79.3242C276.056 75.3559 280.899 73.3718 285.258 73.3718C288.164 73.3718 290.182 74.4246 291.312 76.5302C292.443 78.6358 292.806 81.1868 292.402 84.1832C292.079 86.6937 291.151 89.4067 289.617 92.3222C288.971 93.6179 288.447 94.5897 288.043 95.2376C294.501 88.5159 300.353 83.2114 305.6 79.3242C310.847 75.3559 315.65 73.3718 320.009 73.3718C322.915 73.3718 325.014 74.4246 326.305 76.5302C327.597 78.6358 328.041 81.1868 327.637 84.1832C327.476 85.236 327.234 86.2888 326.911 87.3416C326.588 88.3944 326.144 89.4877 325.579 90.6215C325.014 91.7553 324.489 92.7271 324.005 93.5369C323.601 94.3468 322.915 95.3996 321.946 96.6953C321.058 97.9101 320.413 98.8009 320.009 99.3678C319.605 99.9347 318.798 100.947 317.587 102.405C316.457 103.781 315.771 104.632 315.529 104.956C309.475 112.325 305.197 117.751 302.694 121.234C300.273 124.635 298.9 127.469 298.577 129.737C298.174 132.571 299.385 133.989 302.21 133.989C305.035 133.989 308.143 133.098 311.533 131.316C314.923 129.534 318.677 126.862 322.794 123.299C326.911 119.654 330.18 116.617 332.601 114.188C335.023 111.758 338.252 108.398 342.288 104.105L347.979 98.153L348.827 98.8819L345.799 102.04C345.638 102.202 345.396 102.445 345.073 102.769C344.75 103.012 344.468 103.296 344.225 103.619C343.983 103.862 343.741 104.105 343.499 104.348C339.14 108.964 335.79 112.447 333.449 114.795C331.108 117.063 327.799 120.14 323.52 124.028C319.242 127.834 315.327 130.668 311.775 132.531C308.224 134.313 304.995 135.203 302.089 135.203Z" stroke="white"/>
<path d="M477.851 123.177C472.927 123.177 468.164 122.529 463.563 121.234C459.043 119.938 454.926 118.075 451.213 115.646C447.58 113.216 444.795 109.936 442.858 105.806C441.001 101.595 440.436 96.8978 441.163 91.7148C442.131 84.9121 444.916 77.826 449.517 70.4564C454.119 63.0058 459.85 55.9602 466.711 49.3195C473.653 42.5978 481.604 36.2 490.564 30.1262C499.605 24.0524 508.807 18.8289 518.171 14.4557C527.616 10.0016 537.262 6.47875 547.11 3.88724C557.039 1.29575 566.281 0 574.838 0C580.327 0 584.968 0.526399 588.762 1.5792C592.637 2.55101 595.704 4.41364 597.964 7.16712C600.225 9.8396 601.072 13.2814 600.507 17.4926C599.458 25.1051 594.372 33.5275 585.251 42.7597C576.129 51.911 565.716 59.6045 554.011 65.8403C542.307 71.9951 532.338 75.0725 524.104 75.0725C519.019 75.0725 515.144 73.9387 512.48 71.6711C509.816 69.3226 508.767 66.0427 509.332 61.8315H509.816C509.251 65.6378 510.26 68.5937 512.843 70.6993C515.507 72.8049 519.342 73.8577 524.346 73.8577C531.934 73.8577 541.056 70.8208 551.711 64.747C562.447 58.6732 571.972 51.1416 580.286 42.1524C588.681 33.1631 593.404 24.9432 594.453 17.4926C595.26 11.7427 593.807 7.61252 590.094 5.10201C586.462 2.51051 581.336 1.21476 574.717 1.21476C562.851 1.21476 549.774 4.00872 535.486 9.59664C521.279 15.1846 508.121 22.2707 496.013 30.855C483.986 39.3584 473.572 49.117 464.774 60.1309C456.056 71.1447 451.011 81.6727 449.638 91.7148C448.912 96.7358 449.235 101.271 450.607 105.32C452.06 109.288 454.199 112.447 457.025 114.795C459.931 117.144 463.159 118.926 466.711 120.14C470.263 121.355 474.016 121.962 477.972 121.962C490.161 121.962 504.206 117.954 520.108 109.936C536.091 101.838 551.549 92.0792 566.483 80.6604L577.865 71.9141L558.976 97.9101C542.832 120.262 529.432 136.621 518.777 146.987C524.346 150.712 529.27 154.721 533.549 159.013L532.701 159.985C527.696 155.045 522.692 151.076 517.687 148.08C506.628 158.689 494.964 166.828 482.694 172.497C470.505 178.166 456.823 181 441.647 181C438.176 181 434.907 180.798 431.839 180.393C428.853 179.988 425.906 179.299 423 178.328C420.175 177.356 417.996 175.858 416.462 173.833C414.928 171.889 414.363 169.5 414.767 166.666C415.655 160.268 419.368 154.559 425.906 149.538C432.526 144.598 440.154 140.953 448.791 138.605C457.428 136.256 466.106 135.082 474.824 135.082C489.434 135.082 501.986 137.876 512.48 143.464C523.136 132.369 535.446 116.941 549.41 97.1812L553.527 91.3503C521.884 112.568 496.659 123.177 477.851 123.177ZM421.911 166.666C421.265 171.525 422.637 174.886 426.027 176.748C429.418 178.692 434.342 179.664 440.8 179.664C454.28 179.664 466.711 176.627 478.093 170.553C489.475 164.56 500.574 155.935 511.391 144.679C500.897 139.9 488.587 137.511 474.46 137.511C466.953 137.511 459.365 138.645 451.697 140.913C444.109 143.261 437.45 146.744 431.718 151.36C425.987 155.976 422.718 161.078 421.911 166.666ZM598.812 110.665C608.418 99.6512 613.584 91.6338 614.31 86.6128C614.633 84.0213 614.189 82.0371 612.979 80.6604C611.849 79.2027 610.234 77.9474 608.135 76.8946C606.117 75.7609 604.745 74.6271 604.019 73.4933C603.857 72.7644 603.857 72.0356 604.019 71.3067C604.18 70.1729 604.705 68.5127 605.593 66.3262C606.481 64.1396 606.965 62.7224 607.046 62.0745C607.288 61.0217 606.884 60.4953 605.835 60.4953C604.301 60.4953 602.969 61.0217 601.839 62.0745C600.79 63.0463 600.144 64.3016 599.902 65.8403C599.498 68.4318 600.386 70.9828 602.566 73.4933C600.951 75.5989 596.713 80.3365 589.852 87.706C582.991 94.9946 575.645 102.81 567.815 111.151C559.985 119.411 555.626 124.028 554.738 124.999L556.554 126.579C560.429 122.448 568.501 113.581 580.771 99.9752C593.04 86.2888 600.507 77.7855 603.171 74.4651C603.655 75.032 604.503 75.7608 605.714 76.6517C607.005 77.5425 608.014 78.4333 608.741 79.3242C609.467 80.134 609.75 81.1058 609.588 82.2396C609.023 86.2888 603.131 94.1848 591.91 105.928C583.757 114.431 579.318 121.112 578.591 125.971C578.268 128.725 578.995 130.952 580.771 132.652C582.547 134.353 584.968 135.203 588.036 135.203C590.942 135.203 594.17 134.313 597.722 132.531C601.274 130.668 605.189 127.834 609.467 124.028C613.745 120.14 617.055 117.063 619.396 114.795C621.737 112.447 625.087 108.964 629.446 104.348L631.746 102.04L634.773 98.8819L633.926 98.153L628.235 104.105C624.199 108.398 620.97 111.758 618.548 114.188C616.127 116.617 612.858 119.654 608.741 123.299C604.624 126.862 600.87 129.534 597.48 131.316C594.09 133.098 590.982 133.989 588.157 133.989C585.332 133.989 584.121 132.571 584.524 129.737C584.605 128.927 584.928 127.996 585.493 126.943C586.139 125.809 587.027 124.554 588.157 123.177C589.287 121.719 590.296 120.464 591.184 119.411C592.152 118.278 593.444 116.779 595.058 114.917C596.754 112.973 598.005 111.556 598.812 110.665Z" stroke="white"/>
<path d="M633.495 135.203C624.212 135.203 620.136 131.073 621.266 122.813C621.831 119.006 623.365 114.795 625.867 110.179C628.289 105.563 630.993 101.514 633.98 98.0315C647.864 81.5917 661.869 73.3718 675.995 73.3718C678.821 73.3718 680.919 74.0602 682.292 75.4369C683.664 76.8137 684.189 78.7168 683.866 81.1463C683.704 82.3611 683.341 83.6973 682.776 85.155L680.96 88.7993C687.498 80.5389 691.615 75.5584 693.31 73.8577H704.692C704.45 74.1817 702.916 75.9228 700.091 79.0812C697.265 82.1586 694.037 85.8029 690.404 90.0141C686.772 94.1443 683.381 98.1125 680.233 101.919C675.713 107.426 671.677 112.73 668.125 117.832C664.896 122.61 663.08 126.214 662.676 128.644C662.192 132.207 663.524 133.989 666.672 133.989C669.497 133.989 672.605 133.098 675.995 131.316C679.386 129.534 683.139 126.862 687.256 123.299C691.373 119.654 694.642 116.617 697.064 114.188C699.485 111.758 702.714 108.398 706.75 104.105L712.441 98.153L713.289 98.8819L710.262 102.04C710.1 102.202 709.858 102.445 709.535 102.769C709.212 103.012 708.93 103.296 708.688 103.619C708.445 103.862 708.203 104.105 707.961 104.348C703.602 108.964 700.252 112.447 697.911 114.795C695.57 117.063 692.261 120.14 687.982 124.028C683.704 127.834 679.789 130.668 676.238 132.531C672.686 134.313 669.457 135.203 666.551 135.203C663.645 135.203 661.627 134.151 660.497 132.045C659.367 129.939 659.003 127.388 659.407 124.392C659.73 121.881 660.658 119.168 662.192 116.253C662.757 114.957 663.645 113.338 664.856 111.394C659.044 118.116 653.192 123.785 647.299 128.401C641.487 132.936 636.886 135.203 633.495 135.203ZM642.456 101.676C633.092 112.852 628.006 121.436 627.199 127.429C626.553 131.802 628.692 133.989 633.616 133.989C637.572 133.989 643.424 130.506 651.173 123.542C659.003 116.496 666.107 108.64 672.484 99.9752C676.762 94.1443 679.789 89.0828 681.565 84.7906C682.049 83.6568 682.372 82.4826 682.534 81.2678C683.18 76.8137 680.96 74.5866 675.874 74.5866C672.08 74.5866 667.156 77.1376 661.102 82.2396C655.129 87.3416 648.913 93.8204 642.456 101.676Z" stroke="white"/>
<path d="M754.51 73.3718C757.416 73.3718 759.555 74.0197 760.927 75.3154C762.38 76.5302 762.945 78.3928 762.622 80.9034C762.219 83.6568 761.088 85.9649 759.232 87.8275C757.052 90.338 755.115 91.5933 753.42 91.5933C752.29 91.5933 751.806 91.0669 751.967 90.0141C752.128 88.7183 753.501 87.3011 756.084 85.7624C759.232 83.8188 760.887 82.0371 761.048 80.4175C761.29 78.5548 760.887 77.1376 759.837 76.1658C758.869 75.113 757.173 74.5866 754.752 74.5866C751.039 74.5866 746.074 77.1781 739.859 82.3611C733.643 87.5441 727.347 93.9823 720.97 101.676C718.467 104.672 716.086 108.276 713.826 112.487C711.566 116.617 710.194 120.383 709.709 123.785C708.741 130.587 711.969 133.989 719.396 133.989C725.611 133.989 733.401 130.506 742.765 123.542C752.209 116.577 760.685 109.167 768.192 101.311L771.219 98.153L772.067 98.8819L769.04 102.04C761.452 110.058 752.855 117.589 743.249 124.635C733.724 131.681 725.732 135.203 719.275 135.203C712.817 135.203 708.337 133.665 705.835 130.587C703.332 127.429 702.404 123.38 703.05 118.44C704.018 111.232 707.167 104.429 712.494 98.0315C718.79 90.5 725.531 84.5072 732.715 80.053C739.98 75.5989 747.245 73.3718 754.51 73.3718Z" stroke="white"/>
<path d="M773.441 132.531C769.97 134.313 766.782 135.203 763.876 135.203C760.97 135.203 758.952 134.151 757.821 132.045C756.691 129.939 756.328 127.388 756.732 124.392C757.055 121.881 757.983 119.168 759.517 116.253C761.777 111.718 765.409 106.009 770.414 99.1248C775.499 92.2412 779.697 86.7747 783.007 82.7255C786.397 78.5953 788.899 75.6394 790.514 73.8577H801.895C801.653 74.1817 800.12 75.9228 797.294 79.0812C794.469 82.1586 791.24 85.8029 787.608 90.0141C783.975 94.1443 780.585 98.1125 777.437 101.919C772.674 107.75 768.679 113.054 765.45 117.832C762.221 122.61 760.405 126.214 760.001 128.644C759.517 132.207 760.849 133.989 763.997 133.989C766.741 133.989 769.809 133.098 773.199 131.316C776.589 129.534 780.343 126.862 784.46 123.299C788.576 119.654 791.846 116.617 794.267 114.188C796.689 111.758 799.918 108.398 803.954 104.105L809.645 98.153L810.492 98.8819L807.465 102.04C807.304 102.202 807.062 102.445 806.739 102.769C806.416 103.012 806.133 103.296 805.891 103.619C805.649 103.862 805.407 104.105 805.165 104.348C800.806 108.964 797.456 112.447 795.115 114.795C792.774 117.063 789.464 120.14 785.186 124.028C780.908 127.834 776.993 130.668 773.441 132.531ZM799.958 60.2523C800.12 58.7136 800.765 57.4584 801.895 56.4866C803.026 55.4338 804.317 54.9074 805.77 54.9074C807.304 54.9074 808.474 55.4338 809.281 56.4866C810.169 57.4584 810.533 58.7136 810.371 60.2523C810.129 61.6291 809.443 62.8034 808.313 63.7752C807.183 64.747 805.851 65.2329 804.317 65.2329C802.864 65.2329 801.694 64.747 800.806 63.7752C799.998 62.8034 799.716 61.6291 799.958 60.2523Z" stroke="white"/>
<path d="M809.207 135.203C799.924 135.203 795.847 131.073 796.977 122.813C797.543 119.006 799.076 114.795 801.578 110.179C804 105.563 806.704 101.514 809.691 98.0315C823.575 81.5917 837.58 73.3718 851.707 73.3718C854.532 73.3718 856.631 74.0602 858.003 75.4369C859.375 76.8137 859.9 78.7168 859.577 81.1463C859.416 82.3611 859.052 83.6973 858.487 85.155L856.671 88.7993C863.21 80.5389 867.326 75.5584 869.021 73.8577H880.403C880.161 74.1817 878.627 75.9228 875.802 79.0812C872.977 82.1586 869.748 85.8029 866.115 90.0141C862.483 94.1443 859.093 98.1125 855.945 101.919C851.424 107.426 847.388 112.73 843.836 117.832C840.607 122.61 838.791 126.214 838.388 128.644C837.903 132.207 839.235 133.989 842.383 133.989C845.209 133.989 848.316 133.098 851.707 131.316C855.097 129.534 858.851 126.862 862.967 123.299C867.084 119.654 870.353 116.617 872.775 114.188C875.197 111.758 878.425 108.398 882.462 104.105L888.152 98.153L889 98.8819L885.973 102.04C885.812 102.202 885.569 102.445 885.246 102.769C884.924 103.012 884.641 103.296 884.399 103.619C884.157 103.862 883.915 104.105 883.672 104.348C879.313 108.964 875.964 112.447 873.623 114.795C871.282 117.063 867.972 120.14 863.694 124.028C859.416 127.834 855.501 130.668 851.949 132.531C848.397 134.313 845.168 135.203 842.262 135.203C839.356 135.203 837.338 134.151 836.208 132.045C835.078 129.939 834.715 127.388 835.118 124.392C835.441 121.881 836.37 119.168 837.903 116.253C838.468 114.957 839.356 113.338 840.567 111.394C834.755 118.116 828.903 123.785 823.01 128.401C817.198 132.936 812.597 135.203 809.207 135.203ZM818.167 101.676C808.803 112.852 803.718 121.436 802.91 127.429C802.265 131.802 804.404 133.989 809.328 133.989C813.283 133.989 819.136 130.506 826.885 123.542C834.715 116.496 841.818 108.64 848.195 99.9752C852.474 94.1443 855.501 89.0828 857.276 84.7906C857.761 83.6568 858.084 82.4826 858.245 81.2678C858.891 76.8137 856.671 74.5866 851.586 74.5866C847.792 74.5866 842.868 77.1376 836.813 82.2396C830.84 87.3416 824.625 93.8204 818.167 101.676Z" stroke="white"/>
<path d="M379.485 114.629C374.646 115.127 370.519 114.271 367.105 112.063C363.348 109.623 361.23 106.055 360.75 101.359C360.594 99.8282 360.64 98.4637 360.89 97.265C361.756 92.2171 364.061 87.9811 367.804 84.557C371.358 81.3657 375.761 79.2068 381.014 78.0804C379.206 76.5066 378.194 74.6644 377.978 72.5537C377.617 69.0183 378.957 66.0012 381.997 63.5026C384.643 61.311 387.807 60.026 391.489 59.6476C397.59 59.0205 400.856 60.8176 401.287 65.039C401.454 66.6748 400.971 68.1908 399.838 69.587C398.705 70.9832 397.324 71.765 395.693 71.9326C394.799 72.0245 393.991 71.9209 393.27 71.6218C392.327 71.2388 391.815 70.6516 391.734 69.8601C391.718 69.7018 391.747 69.4589 391.82 69.1315C391.787 68.8149 391.876 68.6458 392.087 68.6241C392.244 68.6079 392.334 68.7053 392.356 68.9164C392.372 69.0747 392.362 69.2357 392.325 69.3994C392.242 69.6213 392.205 69.785 392.216 69.8906C392.318 70.8931 392.896 71.3404 393.947 71.2323C395.525 71.0701 396.897 70.4492 398.062 69.3696C399.322 68.1737 399.871 66.7843 399.709 65.2012C399.532 63.4599 398.681 62.1609 397.159 61.3043C395.858 60.5316 394.286 60.2398 392.446 60.429C388.922 60.7913 386.034 62.1811 383.783 64.5987C381.438 67.1326 380.443 70.1409 380.798 73.6236C380.976 75.3649 381.545 76.7727 382.505 77.8471C382.821 77.8147 383.136 77.7823 383.452 77.7498C383.762 77.6646 384.075 77.6058 384.39 77.5734C390.229 76.9733 393.231 77.4912 393.398 79.127C393.506 80.1823 392.613 80.8073 390.72 81.0019C387.774 81.3046 385.029 80.707 382.485 79.2089C372.522 82.0992 366.852 87.9875 365.474 96.8738C365.235 98.1781 365.197 99.6217 365.358 101.205C365.768 105.215 367.393 108.381 370.234 110.701C373.06 112.864 376.523 113.734 380.626 113.312C385.57 112.804 389.958 110.754 393.79 107.161C397.905 103.218 399.717 98.8463 399.227 94.0444C398.752 89.4009 395.807 87.3575 390.389 87.9144C388.759 88.0819 387.147 88.4342 385.554 88.9712C384.014 89.5027 382.469 90.2481 380.92 91.2072C380.016 91.7266 379.202 92.3435 378.478 93.0578C377.748 93.7193 377.079 94.4546 376.471 95.2636C375.134 97.2673 374.557 99.1662 374.741 100.96C374.902 102.543 375.563 103.808 376.723 104.756C377.882 105.703 379.251 106.095 380.829 105.933C382.565 105.755 384.05 105.202 385.284 104.276C386.77 103.216 387.432 101.895 387.271 100.312C387.222 99.8373 387.356 99.5836 387.671 99.5512C388.092 99.508 388.343 99.8821 388.424 100.674C388.601 102.415 387.826 103.934 386.099 105.232C384.718 106.28 383.054 106.904 381.108 107.104C378.741 107.348 376.73 106.648 375.074 105.005C373.476 103.41 372.558 101.451 372.321 99.1294C371.847 94.4858 373.661 90.9134 377.764 88.4122C380.018 87.0608 383.485 86.1445 388.166 85.6634C390.901 85.3823 394.976 85.2035 400.389 85.127C405.802 85.0504 409.85 84.8743 412.533 84.5986C420.895 83.739 424.888 81.4624 424.511 77.7687C424.301 75.7107 423.046 74.6133 420.747 74.4764C420.263 74.4195 420.002 74.2064 419.964 73.837C419.915 73.3621 420.128 73.1003 420.601 73.0517C421.811 72.9273 422.996 73.3388 424.155 74.286C425.157 75.2494 425.723 76.3644 425.852 77.6308C425.863 77.7363 425.876 77.8683 425.893 78.0266C425.909 78.1849 425.896 78.3195 425.854 78.4304C425.433 82.6328 421.067 85.1611 412.757 86.0152C410.969 86.199 408.436 86.3794 405.159 86.5563C403.36 86.6345 401.826 86.7122 400.559 86.7891C399.291 86.8661 398.263 86.9451 397.474 87.0262C400.285 88.0169 401.877 90.3328 402.249 93.9738C402.804 99.4088 400.425 104.212 395.111 108.384C390.426 111.959 385.218 114.04 379.485 114.629ZM389.456 80.332C391.086 80.1644 391.866 79.7377 391.796 79.0517C391.705 78.1546 390.475 77.8277 388.109 78.071C387.372 78.1467 386.612 78.2515 385.829 78.3853C385.098 78.5138 384.369 78.6686 383.644 78.8498C385.414 80.0542 387.352 80.5483 389.456 80.332Z" stroke="white"/>
</svg>
